<svg width="17" height="13" viewBox="0 0 17 13" fill="none" xmlns="http://www.w3.org/2000/svg">
<path d="M8.38861 4.25C8.98535 4.25 9.55764 4.48705 9.9796 4.90901C10.4016 5.33097 10.6386 5.90326 10.6386 6.5C10.6386 7.09674 10.4016 7.66903 9.9796 8.09099C9.55764 8.51295 8.98535 8.75 8.38861 8.75C7.79187 8.75 7.21958 8.51295 6.79762 8.09099C6.37566 7.66903 6.13861 7.09674 6.13861 6.5C6.13861 5.90326 6.37566 5.33097 6.79762 4.90901C7.21958 4.48705 7.79187 4.25 8.38861 4.25ZM8.38861 0.875C12.1386 0.875 15.3411 3.2075 16.6386 6.5C15.3411 9.7925 12.1386 12.125 8.38861 12.125C4.63861 12.125 1.43611 9.7925 0.138611 6.5C1.43611 3.2075 4.63861 0.875 8.38861 0.875ZM1.77361 6.5C3.01111 9.02 5.56861 10.625 8.38861 10.625C11.2086 10.625 13.7661 9.02 15.0036 6.5C13.7661 3.98 11.2086 2.375 8.38861 2.375C5.56861 2.375 3.01111 3.98 1.77361 6.5Z" fill="black"/>
</svg>
