<svg width="24" height="24" viewBox="0 0 21 19" fill="none" xmlns="http://www.w3.org/2000/svg">
<path d="M10.6042 15.55L10.5 15.65L10.3854 15.55C5.4375 11.24 2.16666 8.39 2.16666 5.5C2.16666 3.5 3.72916 2 5.8125 2C7.41666 2 8.97916 3 9.53125 4.36H11.4687C12.0208 3 13.5833 2 15.1875 2C17.2708 2 18.8333 3.5 18.8333 5.5C18.8333 8.39 15.5625 11.24 10.6042 15.55ZM15.1875 0C13.375 0 11.6354 0.81 10.5 2.08C9.36458 0.81 7.625 0 5.8125 0C2.60416 0 0.0833282 2.41 0.0833282 5.5C0.0833282 9.27 3.625 12.36 8.98958 17.03L10.5 18.35L12.0104 17.03C17.375 12.36 20.9167 9.27 20.9167 5.5C20.9167 2.41 18.3958 0 15.1875 0Z" fill="black"/>
</svg>
