<svg width="17" height="17" viewBox="0 0 17 17" fill="none" xmlns="http://www.w3.org/2000/svg">
<path fill-rule="evenodd" clip-rule="evenodd" d="M16.0386 16.628L15.744 16.3333L11.8789 12.4683L11.5877 12.7013C10.3758 13.6707 8.83945 14.25 7.16659 14.25C3.25457 14.25 0.083252 11.0787 0.083252 7.16671C0.083252 3.25469 3.25457 0.083374 7.16659 0.083374C11.0786 0.083374 14.2499 3.25469 14.2499 7.16671C14.2499 8.83959 13.6705 10.376 12.7011 11.5879L12.4682 11.8791L16.6231 16.034L16.6255 16.0364C16.7028 16.1124 16.7499 16.217 16.7499 16.3334C16.7499 16.5635 16.5634 16.75 16.3333 16.75C16.2181 16.75 16.1145 16.7039 16.0386 16.628ZM7.16659 0.916707C3.71481 0.916707 0.916585 3.71493 0.916585 7.16671C0.916585 10.6185 3.71481 13.4167 7.16659 13.4167C10.6184 13.4167 13.4166 10.6185 13.4166 7.16671C13.4166 3.71493 10.6184 0.916707 7.16659 0.916707Z" fill="#8C8D96"/>
</svg>
